<?xml version="1.0" encoding="utf-8"?>
<!-- Generator: Adobe Illustrator 19.0.1, SVG Export Plug-In . SVG Version: 6.00 Build 0)  -->
<svg version="1.1" id="Layer_1" xmlns="http://www.w3.org/2000/svg" xmlns:xlink="http://www.w3.org/1999/xlink" x="0px" y="0px"
	 viewBox="-223 25 512 512" style="enable-background:new -223 25 512 512;" xml:space="preserve">
<g>
	<g>
		<rect x="-83.2" y="316.8" width="58.1" height="19.6"/>
	</g>
	<g>
		<rect x="-83.2" y="363.3" width="58.1" height="19.6"/>
	</g>
	<g>
		<rect x="-83.2" y="409.8" width="235.9" height="19.6"/>
	</g>
	<g>
		<rect x="-83.2" y="130.9" width="235.9" height="19.6"/>
	</g>
	<g>
		<rect x="-83.2" y="270.3" width="58.1" height="19.6"/>
	</g>
	<g>
		<path d="M152.7,382.9H0V270.3h152.7V382.9z M19.6,363.3h113.5v-73.4H19.6V363.3z"/>
	</g>
	<g>
		<path d="M152.7,243.4H-83.2v-66.1h235.9V243.4z M-63.6,223.8h196.7V197H-63.6V223.8z"/>
	</g>
	<g>
		<path d="M172.4,503.1l-23.2-23.2L126,503.1l-23.2-23.2l-23.2,23.2l-23.2-23.2L33,503.1L9.8,479.9l-23.2,23.2l-23.2-23.2
			l-23.2,23.2l-23.2-23.2l-23.2,23.2l-33-33l0-379.9l33-33l23.2,23.2L-60,57.1l23.2,23.2l23.2-23.2L9.8,80.4L33,57.1l23.2,23.2
			l23.2-23.2l23.2,23.2L126,57.1l23.2,23.2l23.2-23.2l33,33v379.9L172.4,503.1z M149.2,452.2l23.2,23.2l13.4-13.4V98.3l-13.5-13.4
			l-23.2,23.2L126,84.8l-23.2,23.2L79.5,84.8l-23.2,23.2L33,84.8L9.8,108.1l-23.2-23.2l-23.2,23.2L-60,84.8l-23.2,23.2l-23.2-23.2
			l-13.4,13.4l0,363.7l13.4,13.4l23.2-23.2l23.2,23.2l23.2-23.2l23.2,23.2l23.2-23.2L33,475.4l23.2-23.2l23.2,23.2l23.2-23.2
			l23.2,23.2L149.2,452.2z"/>
	</g>
</g>
</svg>
