<?xml version="1.0" encoding="utf-8"?>
<svg version="1.1" id="Layer_1" xmlns="http://www.w3.org/2000/svg" xmlns:xlink="http://www.w3.org/1999/xlink" x="0px" y="0px"
	 viewBox="-223 25 512 512" style="enable-background:new -223 25 512 512;" xml:space="preserve">
<g>
	<path d="M255.3,162.7c0-7.1-5.9-13-13-13c-1.9,0-3.8,0-5.7,0h0c-15.9,0-31.9,0-47.8,0c-39.5,0-79,0-118.5,0c-40.2,0-80.4,0-120.5,0
		c-16.8,0-33.6,0-50.4,0c-4.5-15.4-8.9-30.8-13.4-46.3c-1-3.5-2-7.1-3.1-10.6c-1.6-5.6-6.7-9.6-12.6-9.6c-21.5,0-43,0-64.5,0
		c-7.1,0-13,5.9-13,13c0,7.1,5.9,13,13,13c18.3,0,36.5,0,54.7,0c4.8,16.5,9.6,33.1,14.4,49.6c7.8,27,15.7,54,23.5,81.1
		c0.1,1.8,0.7,3.5,1.5,5.1c3.3,11.1,6.5,22.3,9.7,33.5c9,31.1,18.1,62.2,27.1,93.4c1,3.5,2,7.1,3.1,10.6c1.6,5.6,6.7,9.6,12.6,9.6
		c23.4,0,46.8,0,70.2,0c41.3,0,82.7,0,124.1,0c16.9,0,33.9,0,50.9,0c7.1,0,13-5.9,13-13c0-7.1-5.9-13-13-13c-23.4,0-46.8,0-70.2,0
		c-41.3,0-82.7,0-124.1,0c-13.7,0-27.4,0-41.1,0c-3.5-12.2-7.1-24.4-10.6-36.6c17.1,0,34.1,0,51.2,0c41.7,0,83.4,0,125.1,0
		c19.2,0,38.4,0,57.6,0h0c1.6,0,3.3,0,4.9,0c7.1,0,13-5.9,13-13c0-2.6-0.8-5.1-2.2-7.2c8.4-24.6,16.7-49.3,25-74
		c6.8-20.2,13.6-40.3,20.4-60.5C251.6,173.1,255.3,168.2,255.3,162.7z M218.9,175.7c-5.7,16.8-11.3,33.6-17,50.3
		c-17.8,0-35.6,0-53.5,0c-0.2,0-0.4,0-0.6,0c2.1-16.8,4.2-33.6,6.4-50.3c9.4,0,18.8,0,28.2,0C194.5,175.7,206.7,175.7,218.9,175.7z
		 M138,303.5c2.2-17.1,4.3-34.3,6.5-51.4c16.2,0,32.4,0,48.6,0c-5.8,17.1-11.6,34.3-17.4,51.4C163.1,303.5,150.5,303.5,138,303.5z
		 M76.2,303.5c0-17.1,0-34.3,0-51.4c6.9,0,13.7,0,20.6,0c7.2,0,14.4,0,21.6,0c0,0.3-0.1,0.7-0.1,1c-2.1,16.8-4.2,33.6-6.4,50.4
		C100,303.5,88.1,303.5,76.2,303.5z M14.5,303.5c-2.2-17.1-4.3-34.3-6.5-51.4c14.1,0,28.2,0,42.2,0c0,0.7,0,1.4,0,2.1
		c0,16.5,0,32.9,0,49.4C38.3,303.5,26.4,303.5,14.5,303.5z M-71,252.1c14.5,0,29,0,43.4,0c3.2,0,6.3,0,9.5,0c0,0.3,0.1,0.7,0.1,1
		c2.1,16.8,4.2,33.6,6.4,50.4c-14.8,0-29.7,0-44.5,0C-61,286.3-66,269.2-71,252.1z M76.2,175.7c17.3,0,34.6,0,51.9,0
		c-2.1,16.8-4.2,33.6-6.4,50.3c-15.2,0-30.3,0-45.5,0c0-0.3,0-0.7,0-1C76.2,208.6,76.2,192.1,76.2,175.7z M50.2,226
		c-8.7,0-17.5,0-26.2,0c-6.4,0-12.9,0-19.3,0c-2.1-16.8-4.2-33.6-6.4-50.3c17.3,0,34.6,0,51.9,0C50.2,192.5,50.2,209.3,50.2,226z
		 M-56.7,175.7c9.6,0,19.3,0,28.9,0c2.1,16.8,4.2,33.6,6.4,50.3c-18,0-36.1,0-54.1,0c-1,0-2,0-3,0c-2.8-9.7-5.7-19.4-8.4-29.2
		c-2-7-4.1-14.1-6.1-21.1C-81,175.7-68.8,175.7-56.7,175.7z"/>
	<path d="M31.6,442.3c-1.1-18.6-16.1-33.1-34.9-33.5c-19.3-0.4-34.6,16.3-35,35c-0.4,19.3,16.3,34.6,35,35
		c18.8,0.4,33.7-15.4,34.9-33.5c0-0.5,0.1-1,0-1.5C31.6,443.3,31.6,442.7,31.6,442.3z"/>
	<path d="M187.8,442.3c-1.1-18.6-16.1-33.1-34.9-33.5c-19.3-0.4-34.6,16.3-35,35c-0.4,19.3,16.3,34.6,35,35
		c18.8,0.4,33.7-15.4,34.9-33.5c0-0.5,0.1-1,0-1.5C187.9,443.3,187.9,442.7,187.8,442.3z"/>
</g>
</svg>
