<?xml version="1.0" encoding="utf-8"?>
<!-- Generator: Adobe Illustrator 19.0.1, SVG Export Plug-In . SVG Version: 6.00 Build 0)  -->
<svg version="1.1" id="Layer_1" xmlns="http://www.w3.org/2000/svg" xmlns:xlink="http://www.w3.org/1999/xlink" x="0px" y="0px"
	 viewBox="-223 25 512 512" style="enable-background:new -223 25 512 512;" xml:space="preserve">
<g>
	<path d="M213.9,403.2L154.5,381c-4.4-2.2-18.5-1.7-22,1.8l-34,23.8c-3.5,3.5-22.2,9-27,9c0,0-41.3-14.3-99.7-72.8
		C-86.6,284.3-86,251.5-86,251.5c0-4.8-5.4-15.2-1.9-18.6l18.6-19c3.5-3.5,11.7-15.8,9.7-20.2l-28-91.6c-2-4.4-6.5-5.2-9.9-1.8
		l-57.2,57c-3.5,3.4-6.8,10.2-7.4,15.1c0,0-11.2,83.3,105.6,200C60.2,489.1,143.5,478,143.5,478c4.8-0.6,11.6-4,15.1-7.4l57.1-57.1
		C219,410.1,218.3,405.4,213.9,403.2z"/>
	<path d="M10,247c12.3,3,23.9,9.3,33.4,18.9c9.6,9.6,15.9,21.3,18.9,33.6h23.3c-2.4-19.1-10.9-36.7-24.7-50.5
		c-13.9-14-31.7-22.6-50.9-24.9V247z"/>
	<path d="M185,299.5h27.4C210.5,194.8,114.7,99.3,10,97.7v26.8C103.9,129.8,179.3,205.3,185,299.5z"/>
	<path d="M121.7,299.5h27.5c-5.5-74.4-65-134-139.1-139.1v27.7C69,193.1,116.3,240.3,121.7,299.5z"/>
</g>
</svg>
