<?xml version="1.0" encoding="utf-8"?>
<svg version="1.1" id="Layer_1" xmlns="http://www.w3.org/2000/svg" xmlns:xlink="http://www.w3.org/1999/xlink" x="0px" y="0px"
	 viewBox="-223 25 512 512" style="enable-background:new -223 25 512 512;" xml:space="preserve">
<g>
	<g>
		<g>
			<path d="M200.8,113.2h-335.6v335.6h335.6V113.2z M185.2,433.2h-304.4V128.8h304.4V433.2z"/>
			<path d="M120.8,352.8h48V209.2h-48v-16H-54.8v175.6h175.6V352.8z M120.8,224.8h32.4v112.4h-32.4V224.8z M105.2,353.2H-39.2V208.8
				h144.4V353.2z"/>
			<rect x="233" y="433.2" width="56" height="15.6"/>
			<rect x="233" y="369.2" width="56" height="15.6"/>
			<rect x="233" y="305.2" width="56" height="15.6"/>
			<rect x="233" y="241.2" width="56" height="15.6"/>
			<path d="M289,128.8v-15.6h-56.2v-32h-32V25h-15.6v56.2h-48.4V25h-15.6v56.2H72.8V25H57.2v56.2H8.8V25H-6.8v56.2h-48.4V25h-15.6
				v56.2h-48.4V25h-15.6v56.2h-32v32H-223v15.6h56.2v48.4H-223v15.6h56.2v48.4H-223v15.6h56.2v48.4H-223v15.6h56.2v48.4H-223v15.6
				h56.2v48.4H-223v15.6h56.2v32h32V537h15.6v-56.2h48.4V537h15.6v-56.2h48.4V537H8.8v-56.2h48.4V537h15.6v-56.2h48.4V537h15.6
				v-56.2h48.4V537h15.6v-56.2h32v-288H289v-15.6h-56.2v-48.4H289z M217.2,465.2h-368.4V96.8h368.4V465.2z"/>
			<rect x="-23" y="225.2" width="112" height="15.6"/>
			<rect x="-23" y="257.2" width="112" height="15.6"/>
			<rect x="5" y="321.2" width="56" height="15.6"/>
			<rect x="129.2" y="241" width="15.6" height="16"/>
			<rect x="129.2" y="273" width="15.6" height="16"/>
			<rect x="129.2" y="305" width="15.6" height="16"/>
			<rect x="-23" y="289.2" width="16" height="15.6"/>
			<rect x="9" y="289.2" width="16" height="15.6"/>
			<rect x="41" y="289.2" width="16" height="15.6"/>
			<rect x="73" y="289.2" width="16" height="15.6"/>
		</g>
	</g>
</g>
</svg>
