<?xml version="1.0" encoding="utf-8"?>
<svg version="1.1" id="Layer_1" xmlns="http://www.w3.org/2000/svg" xmlns:xlink="http://www.w3.org/1999/xlink" x="0px" y="0px"
	 viewBox="0 0 269.3 109.7" style="enable-background:new 0 0 269.3 109.7;" xml:space="preserve">
<g>
	<path d="M0,37.9c0-10,1.6-17.3,2.6-32.7c2.1,0,8.6,2.5,9.1,3.5C9,14.5,7.4,28.6,7.4,38.9c0,2.4,0.1,4.8,0.2,6.7
		C12.5,38.8,23,11.7,24.6,5.2c2.1,0,8.8,2.5,9.1,3.5c-2.7,5.8-4.3,19.9-4.3,30.2c0,2.2,0.1,4.3,0.2,6.1C37,26.4,47,8.4,49.5,5.9
		c1.8,0.2,3.9,1.3,5.4,2.8C48,13.9,34.9,41,31.5,49.8c-1,0.4-2,0.7-3,0.7c-2.5-0.3-5-1.2-6-2.5c-0.5-2.5-0.6-6.6-0.6-8.6
		c0-6.6,0.7-13.4,1.4-21.2c-3.7,10.1-9.1,23.9-13.8,31.6c-1,0.4-2,0.7-3,0.7c-2.5-0.3-5-1.2-6-2.5C0.2,44.9,0,41,0,37.9z"/>
	<path d="M51.7,39.7c0,0.4-0.1,0.9-0.1,1.4c0,1.9,0.5,4.5,2.7,4.5c4.3,0,8.3-4,10.8-6.5c0.4,0.3,0.7,0.6,1,0.9
		c-3.6,4.4-8.1,7.6-11.8,8.4c-5.4-0.6-8.6-4.1-8.6-8.5c0-9.1,8.9-19.9,16.7-19.9c1.8,0.2,3.5,1.3,5.1,3.2
		C66.9,32.3,61.7,35.9,51.7,39.7z M52.1,37.6c6.3-3,10.9-7.5,11.2-12.6C59.1,25.6,54,30.7,52.1,37.6z"/>
	<path d="M74.9,25.5C79.7,13,84,4.7,88,0c1.9,0.3,6,2.6,6.6,3.5c-6.2,6.9-10.6,14.4-14.5,24.6c-3.3,8.7-5.1,15.9-5.1,20.6
		c0,1.3,0,1.3,0.1,1.6c-1.1-0.1-2-0.6-2.2-1.1c-0.2-0.4-1.1-1.3-1.6-1.6c-0.7-0.4-1.2-2.6-1.2-5C70.1,39.4,71.8,33.2,74.9,25.5z"/>
	<path d="M100.5,19.8c4.1,0,6.4,2,6.4,5.6c0,3.4-2.2,6.7-4.5,6.7c-0.9,0-2-0.6-2.7-1.5c2.7-2.3,4-4.3,4-6.2c0-1.1-0.5-1.6-1.4-1.6
		c-1.5,0-4.2,1.6-6.4,3.8c-3.4,3.6-5.2,8-5.2,12.8c0,3,0.7,4.8,2.1,5.4c2.3-0.3,6.6-2.2,10.2-4.8c0.3,0.2,0.6,0.8,0.6,1.1
		c-2.6,3.1-7.5,6.2-10.1,6.7c-5.2-0.4-9.4-5.6-9.4-11.4C84.1,28,92.2,19.8,100.5,19.8z"/>
	<path d="M108.2,39.2c0-6,4.1-13.1,9.6-17c2.1-1.5,4.3-2.3,6.1-2.3c1.2,0.6,2.5,2,3.7,4c0.4,0,0.7-0.1,1.1-0.1
		c2.1,0,3.1,1.7,3.1,5.2c0,9.3-6.8,17.3-16.3,19.2C111.1,47.7,108.2,44.2,108.2,39.2z M113.8,41.9c0,1.8,0.8,3.7,1.5,4
		c7-1.4,12.2-8.6,12.2-17.3c0-1.9-0.2-3-0.8-3.7c-3.4,0.9-6.2,3.3-8.2,5.7C115.9,34,113.8,39,113.8,41.9z"/>
	<path d="M152,47.6c-1.7-0.7-3.1-2-3.6-3.9c0.8-4.6,2.6-9.8,7.5-16.3c-2.4,0.1-8.5,6.8-13,12.6c-2.9,3.8-4.9,7.1-5.7,7.6
		c-2.1-1.4-2.6-3-3-5c0.1-1.8,0.6-4.6,1.5-7.5c1.8-5.4,5-11,7.7-15.4c2.2,0.4,3.8,1.3,5.8,3.2c-1.5,4.6-7.5,10.4-8.4,16.5
		c4.5-6,12.5-16.7,17.6-16.7c2,0,4.6,1.4,4.8,1.9c-0.8,3-6.7,11.2-7.3,14.3c7.7-9.9,13.6-16.5,18-16.5c1.6,0,3.1,0.8,3.7,2.3
		c-1.4,4.4-7.3,13.3-7.4,18.5c0,1.6,0.5,1.9,1.4,1.9c0.9,0,1.8-0.5,2.2-0.5c0.5,0.3,0.5,0.8,0.5,1.2c-1.6,1.2-3.2,2.1-5.2,2.1
		c-3.7,0-4.9-2.6-4.9-5.6c0-5.1,3.3-10.1,4.8-13.1C165.1,29.4,155.7,43.2,152,47.6z"/>
	<path d="M185.4,39.7c0,0.4-0.1,0.9-0.1,1.4c0,1.9,0.5,4.5,2.7,4.5c4.3,0,8.3-4,10.8-6.5c0.4,0.3,0.7,0.6,1,0.9
		c-3.6,4.4-8.1,7.6-11.8,8.4c-5.4-0.6-8.6-4.1-8.6-8.5c0-9.1,8.9-19.9,16.7-19.9c1.8,0.2,3.5,1.3,5.1,3.2
		C200.6,32.3,195.4,35.9,185.4,39.7z M185.9,37.6c6.3-3,10.9-7.5,11.2-12.6C192.8,25.6,187.8,30.7,185.9,37.6z"/>
	<path d="M225,8.2c0-0.6,0.2-1.6,0.5-2.1c1,0.4,3.1,0.6,5.8,0.6c8.1,0,21.7-1.6,23.7-1.6c2.9,0,4,2.2,4.6,5.6
		c-2-0.2-4.2-0.3-5.6-0.3c-2.5,0-5.1,0.2-7.7,0.4c-2.2,4.2-5.4,12.4-7.2,17.4c-3.4,9.9-5.1,16.3-6.2,22.6c-2.7-0.4-4.9-1.9-6.6-4.7
		c1.3-4.6,3.4-10.5,7.8-21.7c1.7-4.2,3.6-9.2,4.5-12.7c-3.3,0.4-6.3,0.7-8.6,0.7C226.8,12.5,225,10.6,225,8.2z"/>
	<path d="M245.6,39.2c0-6,4.1-13.1,9.6-17c2.1-1.5,4.3-2.3,6.1-2.3c1.2,0.6,2.5,2,3.7,4c0.4,0,0.7-0.1,1.1-0.1
		c2.1,0,3.1,1.7,3.1,5.2c0,9.3-6.8,17.3-16.3,19.2C248.5,47.7,245.6,44.2,245.6,39.2z M251.2,41.9c0,1.8,0.8,3.7,1.5,4
		c7-1.4,12.2-8.6,12.2-17.3c0-1.9-0.2-3-0.8-3.7c-3.4,0.9-6.2,3.3-8.2,5.7C253.3,34,251.2,39,251.2,41.9z"/>
	<path d="M77.9,85.3c0,0.6-0.1,1.3-0.3,1.7c-1-0.2-2.2-0.3-4-0.3c-3.4,0-7,0.7-10.1,1.1c-3.6,7.9-6,15-6.2,17.2
		c6.4-1.2,12.8-2.2,19.9-2.6c0.9,1.2,1.5,2.7,1.5,4.5c0,0.4,0,1-0.1,1.5c-2.2-0.1-4.3-0.1-8.3-0.1c-5.3,0-8.8,0.3-15.4,1.4
		c-1.8-0.7-3.6-2.4-5.3-4.9c1.4-2.7,3.7-8,7.4-17c-1.7-0.5-3-1.5-3.5-2.8c0.4-0.4,2.5-0.9,5.2-1.6c2.3-5.7,3.3-8.3,4.2-12.6
		c-2.7-0.1-4.4-1.6-4.4-3.6c0-0.6,0.2-1.6,0.5-2.1c1.5,0.2,2.8,0.3,5.1,0.3c9.9,0,17.6-1.2,20.3-1.2c1.8,0,3.3,1.9,4,5.1
		c-2.4-0.2-3.8-0.3-5-0.3c-4.3,0-7.9,0.5-11.1,0.9c-0.9,1.3-2.2,3.8-6.2,12.3c3-0.4,5.8-0.7,7.6-0.7C76.4,81.5,77.9,82.9,77.9,85.3z
		"/>
	<path d="M101.2,106.6c-1.7-0.7-3.1-2-3.6-3.9c0.8-4.6,2.6-9.8,7.5-16.3c-2.4,0.1-8.5,6.8-13,12.6c-2.9,3.8-4.9,7.1-5.7,7.6
		c-2.1-1.4-2.6-3-3-5c0.1-1.8,0.6-4.6,1.5-7.5c1.8-5.4,5-11,7.7-15.4c2.2,0.4,3.8,1.3,5.8,3.2c-1.5,4.6-7.5,10.4-8.4,16.5
		c4.5-6,12.5-16.7,17.6-16.7c2,0,4.6,1.4,4.8,1.9c-0.8,3-6.7,11.2-7.3,14.3c7.7-9.9,13.6-16.5,18-16.5c1.6,0,3.1,0.8,3.7,2.3
		c-1.4,4.4-7.3,13.3-7.4,18.5c0,1.6,0.5,1.9,1.4,1.9c0.9,0,1.8-0.5,2.2-0.5c0.5,0.3,0.5,0.8,0.5,1.2c-1.6,1.2-3.2,2.1-5.2,2.1
		c-3.7,0-4.9-2.6-4.9-5.6c0-5.1,3.3-10.1,4.8-13.1C114.4,88.4,105,102.2,101.2,106.6z"/>
	<path d="M127.4,104.8c1.5-2.9,3.8-8.7,9.1-21.4c3.3-8.1,3.8-9.7,5.7-19.5c3.3,0.6,6.1,3,8,6c-1.7,2-4.7,8.8-8.5,16.9
		c-4.2,8.9-6.6,16.1-7.9,22.9C130.9,109.1,129.1,107.3,127.4,104.8z M167.6,64.1c2.1,0,5.2,3.4,5.3,5.9c-9.7,3-19,9.8-25.4,18.5
		c2.5,6.1,7.6,14.3,12.8,17.7c-0.8,1.6-4,3.2-6,3.2c-4.1,0-6.7-7.4-11.5-21.9C152.6,73.9,162.2,64.1,167.6,64.1z"/>
	<path d="M167.5,90.9c0.4-1.4,2.1-7.2,5.6-8.9c1.3,0.3,4,1.5,5.5,3.7c-3.6,3.8-4.7,7.7-6.7,12.6c-0.8,2.1-1.7,4.5-1.8,6.1
		c0,1.3,0,1.8-0.4,1.8c-0.6,0-4.3-1.4-4.3-4.7C165.4,100.2,165.9,97.6,167.5,90.9z M176.9,76.3c-0.4-0.4-0.7-1.2-0.7-1.8
		c0-1.3,0.8-4.9,1.8-7.3c1.8,0,6,2.2,7.2,3.9c-1.8,1.6-6.1,6.5-6.7,7.7c-0.9-0.2-1.8-0.9-1.8-1.5C176.7,77.1,176.8,76.8,176.9,76.3z
		"/>
	<path d="M182.4,83.9c-0.4-0.4-0.8-2.3-0.8-3.3c2.1,0.1,4,0.3,5.6,0.3c2.4-4.4,5.8-9.2,7.1-9.9c1.6,0,5.4,1.2,6.2,2
		c-2.4,2.8-3.8,5-5.8,8.1c1.5,0,3.2-0.1,4.9-0.2c0.4,0.3,0.7,0.9,0.7,1.6c-1.9,0.7-4.3,1.1-7,1.1c-3.9,7.1-6.3,14.4-6.3,18.9
		c0,1.7,0.7,2.6,2,2.7c2.4-0.3,4.6-1.2,6.2-2.4c0.2,0.3,0.4,0.6,0.4,0.8c-0.9,1.3-5.1,4-6.4,4.1c-3.9-0.1-8.4-3.3-8.4-5.9
		c0-3.6,2.2-11.1,5.2-18H182.4z"/>
</g>
</svg>
